<svg width="586" height="72" viewBox="0 0 586 72" fill="none" xmlns="http://www.w3.org/2000/svg">
<path d="M47.1 1.3V8.7H16.8V32.2H41.4V39.6H16.8V71H7.7V1.3H47.1Z" fill="white"/>
<path d="M94.8 63.6H119.2V71H85.7V1.3H94.8V63.6Z" fill="#3BB99B"/>
<path d="M187.3 71.7C180.833 71.7 174.933 70.2 169.6 67.2C164.267 64.1333 160.033 59.9 156.9 54.5C153.833 49.0333 152.3 42.9 152.3 36.1C152.3 29.3 153.833 23.2 156.9 17.8C160.033 12.3333 164.267 8.1 169.6 5.1C174.933 2.03333 180.833 0.499996 187.3 0.499996C193.833 0.499996 199.767 2.03333 205.1 5.1C210.433 8.1 214.633 12.3 217.7 17.7C220.767 23.1 222.3 29.2333 222.3 36.1C222.3 42.9667 220.767 49.1 217.7 54.5C214.633 59.9 210.433 64.1333 205.1 67.2C199.767 70.2 193.833 71.7 187.3 71.7ZM187.3 63.8C192.167 63.8 196.533 62.6667 200.4 60.4C204.333 58.1333 207.4 54.9 209.6 50.7C211.867 46.5 213 41.6333 213 36.1C213 30.5 211.867 25.6333 209.6 21.5C207.4 17.3 204.367 14.0667 200.5 11.8C196.633 9.53333 192.233 8.4 187.3 8.4C182.367 8.4 177.967 9.53333 174.1 11.8C170.233 14.0667 167.167 17.3 164.9 21.5C162.7 25.6333 161.6 30.5 161.6 36.1C161.6 41.6333 162.7 46.5 164.9 50.7C167.167 54.9 170.233 58.1333 174.1 60.4C178.033 62.6667 182.433 63.8 187.3 63.8Z" fill="white"/>
<path d="M299.3 71.7C292.833 71.7 286.933 70.2 281.6 67.2C276.267 64.1333 272.033 59.9 268.9 54.5C265.833 49.0333 264.3 42.9 264.3 36.1C264.3 29.3 265.833 23.2 268.9 17.8C272.033 12.3333 276.267 8.1 281.6 5.1C286.933 2.03333 292.833 0.499996 299.3 0.499996C305.833 0.499996 311.767 2.03333 317.1 5.1C322.433 8.1 326.633 12.3 329.7 17.7C332.767 23.1 334.3 29.2333 334.3 36.1C334.3 42.9667 332.767 49.1 329.7 54.5C326.633 59.9 322.433 64.1333 317.1 67.2C311.767 70.2 305.833 71.7 299.3 71.7ZM299.3 63.8C304.167 63.8 308.533 62.6667 312.4 60.4C316.333 58.1333 319.4 54.9 321.6 50.7C323.867 46.5 325 41.6333 325 36.1C325 30.5 323.867 25.6333 321.6 21.5C319.4 17.3 316.367 14.0667 312.5 11.8C308.633 9.53333 304.233 8.4 299.3 8.4C294.367 8.4 289.967 9.53333 286.1 11.8C282.233 14.0667 279.167 17.3 276.9 21.5C274.7 25.6333 273.6 30.5 273.6 36.1C273.6 41.6333 274.7 46.5 276.9 50.7C279.167 54.9 282.233 58.1333 286.1 60.4C290.033 62.6667 294.433 63.8 299.3 63.8Z" fill="white"/>
<path d="M414.6 35.1C417.133 35.5 419.433 36.5333 421.5 38.2C423.633 39.8667 425.3 41.9333 426.5 44.4C427.767 46.8667 428.4 49.5 428.4 52.3C428.4 55.8333 427.5 59.0333 425.7 61.9C423.9 64.7 421.267 66.9333 417.8 68.6C414.4 70.2 410.367 71 405.7 71H379.7V1.3H404.7C409.433 1.3 413.467 2.1 416.8 3.7C420.133 5.23333 422.633 7.33333 424.3 10C425.967 12.6667 426.8 15.6667 426.8 19C426.8 23.1333 425.667 26.5667 423.4 29.3C421.2 31.9667 418.267 33.9 414.6 35.1ZM388.8 31.4H404.1C408.367 31.4 411.667 30.4 414 28.4C416.333 26.4 417.5 23.6333 417.5 20.1C417.5 16.5667 416.333 13.8 414 11.8C411.667 9.8 408.3 8.8 403.9 8.8H388.8V31.4ZM404.9 63.5C409.433 63.5 412.967 62.4333 415.5 60.3C418.033 58.1667 419.3 55.2 419.3 51.4C419.3 47.5333 417.967 44.5 415.3 42.3C412.633 40.0333 409.067 38.9 404.6 38.9H388.8V63.5H404.9Z" fill="#3BB99B"/>
<path d="M480.8 63.6H505.2V71H471.7V1.3H480.8V63.6Z" fill="white"/>
<path d="M550.8 8.7V32H576.2V39.5H550.8V63.5H579.2V71H541.7V1.2H579.2V8.7H550.8Z" fill="white"/>
</svg>
