<svg width="26" height="34" viewBox="0 0 26 34" fill="none" xmlns="http://www.w3.org/2000/svg">
<path fill-rule="evenodd" clip-rule="evenodd" d="M12 22C9.23858 22 7 19.7614 7 17V5C7 2.23858 9.23858 0 12 0H13C15.7614 0 18 2.23858 18 5V17C18 19.7614 15.7614 22 13 22H12Z" fill="#3BB99B"/>
<path d="M2.49584 16.9069C2.49584 16.9069 2.50326 17.7864 3.15752 19.5316C3.81178 21.2768 4.09109 22.415 5.28739 23.8876C6.98622 25.9834 10.4246 27.5088 12.8771 27.5088C14.9725 27.5088 18.2519 26.5564 20.2487 24.4111C21.7184 22.8364 22.59 20.6986 23.1482 18.918C23.3759 18.2039 23.3893 16.9069 23.3893 16.9069" stroke="#707070" stroke-width="4"/>
<path d="M12.5 25.5V33.5" stroke="#707070" stroke-width="4"/>
</svg>
